<?xml version="1.0" encoding="utf-8"?>
<svg class="japan-board-index" viewBox="-35.354 30.18 889.287 611.202" xmlns="http://www.w3.org/2000/svg" xmlns:bx="https://boxy-svg.com">
  <g transform="matrix(1, 0, 0, 1, 93.661591, 27.687597)">
    <g transform="matrix(1.011417, 0, 0, 1.008254, -53.071556, -14.68874)" style="">
      <title>Japan</title>
      <path d="M 870.092 300.196 C 871.556 308.846 829.118 376.715 807.762 396.386 C 780.827 421.198 763.926 350.47 701.604 390.142 C 686.791 399.571 700.398 335.525 676.694 352.694 C 656.349 367.431 668.047 388.487 646.9 411.324 C 625.928 433.972 613.05 437.303 586.002 456.83 C 571.013 467.652 545.942 471.348 531.071 488.379 C 521.506 499.331 497.218 521.777 492.832 529.054 C 479.711 550.827 450.764 568.592 434.911 563.384 C 418.824 558.099 374.333 526.069 355.419 500.593 C 350.742 494.293 330.855 476.004 323.232 476.376 C 295.191 477.747 251.017 475.97 225.789 475.109 C 197.895 474.157 223.566 409.534 139.221 428.542 C 111.867 434.706 129.68 402.769 115.718 402.577 C 100.361 402.364 82.753 421.841 77.226 422.816 C 2.357 436.014 -54.416 422.912 -57.798 400.977 C -59.188 391.964 -54.106 356.555 -48.644 341.368 C -42.799 325.118 -27.41 314.258 -16.781 296.639 C -2.087 272.285 16.602 260.58 32.77 233.919 C 49.905 205.662 146.508 212.971 152.094 214.895 C 195.523 229.854 249.723 205.085 283.089 238.416 C 301.245 256.551 310.99 305.45 356.396 294.435 C 377.247 289.376 391.922 264.65 411.968 264.845 C 435.372 265.074 454.167 293.64 472.604 298.211 C 498.799 304.705 509.105 301.789 525.279 294.687 C 561.616 278.729 603.931 257.038 628.101 217.808 C 639.064 200.013 666.088 191.922 688.406 195.498 C 703.012 197.84 720.849 205.035 726.691 203.52 C 738.341 200.5 773.299 172.703 791.962 179.649 C 816.467 188.77 814.831 233.408 826.244 264.094 C 835.398 288.709 865.18 271.187 870.092 300.196 Z" style="stroke: rgb(0, 131, 192); paint-order: fill; fill: rgb(0, 131, 192);" transform="matrix(0.882947, -0.470945, 0.468004, 0.882947, -126.471547, 233.997849)">
        <title>Ocean Background</title>
      </path>
      <path d="M 760.484 111.686 C 763.776 115.525 755.473 133.524 754.153 151.085 C 753.331 162.017 761.436 171.63 757.734 181.063 C 745.563 212.076 687.328 151.725 672.238 214.349 C 668.428 230.162 630.865 176.558 619.683 194.117 C 607.288 213.581 623.601 264.708 615.618 291.712 C 607.699 318.496 587.144 332.642 572.401 359.519 C 564.23 374.414 545.782 389.036 540.622 408.795 C 537.302 421.504 531.801 450.214 531.335 457.825 C 529.939 480.6 522.012 491.472 505.578 494.042 C 488.901 496.652 457.087 489.62 428.464 477.439 C 421.386 474.427 384.413 465.498 377.856 469.012 C 353.739 481.935 318.205 501.264 295.527 511.235 C 270.452 522.258 261.587 457.525 196.01 508.183 C 174.744 524.612 180.293 496.848 167.875 502.591 C 154.216 508.905 139.428 535.614 135.005 538.72 C 75.076 580.777 39.698 616.606 26.445 600.67 C 20.999 594.122 20.367 562.2 22.439 549.903 C 25.503 531.713 37.968 518.701 39.108 500.266 C 40.683 474.785 49.47 468.135 51.269 440.204 C 53.174 410.602 120.477 384.54 126.31 383.704 C 171.656 377.209 195.518 339.194 240.577 351.491 C 265.095 358.181 311.606 385.581 346.543 357.69 C 362.585 344.883 360.606 316.669 378.396 308.36 C 399.169 298.661 438.073 302.957 445.035 301.477 C 471.294 295.899 481.359 288.553 492.316 276.103 C 505.294 261.354 513.294 227.792 518.807 216.13 C 523.331 206.561 552.523 187.454 553.932 167.95 C 555.283 149.235 571.076 114.159 592.456 107.567 C 606.447 103.254 616.196 103.725 620.645 100.059 C 629.518 92.75 641.107 40.93 660.836 38.55 C 686.741 35.424 690.818 87.316 715.256 106.787 C 734.859 122.407 742.57 90.797 760.484 111.686 Z" style="paint-order: fill; stroke: rgb(0, 160, 235); fill: rgb(0, 156, 229);">
        <title>Coast Background</title>
      </path>
      <g>
        <title>Shikoku Background</title>
        <path id="path-1" class="st0 kagoshima" d="M 118.899 530.159 C 119.652 530.983 110.489 535.662 110.237 535.936 C 105.046 541.616 99.164 543.359 92.109 547.377 C 91.029 547.996 86.755 548.02 86.48 546.854 C 85.51 542.793 86.258 537.397 82.824 536.898 C 79.391 536.401 70.052 535.593 66.955 534.085 C 64.379 532.827 65.073 529.842 65.639 528.765 C 66.299 527.511 65.916 527.782 66.915 526.508 C 69.72 522.951 69.877 522.36 70.715 518.936 C 71.74 514.737 66.072 513.888 65.946 510.723 C 65.92 510.102 66.074 509.467 66.329 508.899 C 67.917 505.331 71.432 502.368 71.547 497.65 C 71.551 497.476 75.675 490.931 78.174 486.057 C 79.56 483.363 84.466 491.926 85.364 492.511 C 91.962 496.807 96.17 503.854 100.361 509.29 C 100.948 510.053 102.716 515.167 105.919 518.149 C 107.477 519.596 110.497 518.992 111.726 520.114 C 113.651 521.866 115.134 526.059 118.899 530.159 Z" style="stroke-linejoin: round; stroke-width: 0.99026px; stroke: rgba(255, 255, 255, 0); fill: rgb(0, 174, 255);" transform="matrix(0.956243, 0.293492, -0.291659, 0.956243, 154.735467, -4.523455)"/>
        <path id="path-2" class="st0 oita" d="M 140.162 439.36 C 144.128 438.237 150.634 433.295 153.342 443.567 C 155.687 452.461 148.376 449.898 150.509 455.573 C 150.8 456.352 155.649 456.924 157.026 456.95 C 157.358 456.955 160.133 455.574 160.117 456.021 C 160.059 457.635 157.825 460.651 157.825 460.651 C 154.813 464.845 163.183 463.183 163.949 463.377 C 166.172 463.937 159.969 465.759 160.479 467.956 C 161.15 470.846 166.258 468.908 167.424 469.631 C 167.444 469.646 163.98 470.913 163.655 471.916 C 163.073 473.714 161.863 475.748 159.922 476.35 C 159.373 476.521 151.234 478.545 147.056 477.941 C 142.624 477.297 137.256 474.305 135.779 472.869 C 131.971 469.169 134.527 462.279 127.537 459.627 C 127.364 459.559 127.16 459.581 126.977 459.604 C 121.06 460.365 127.623 463.326 125.063 465.846 C 124.075 466.818 119.018 464.134 118.953 463.828 C 118.066 459.73 117.368 449.426 122.95 446.752 C 125.234 445.653 127.794 443.327 129.347 442.123 C 131.289 440.618 138.172 439.924 140.162 439.36 Z" style="stroke-linejoin: round; stroke-width: 0.99026px; stroke: rgba(255, 255, 255, 0); fill: rgb(0, 174, 255);" transform="matrix(0.956243, 0.293492, -0.291659, 0.956243, 139.72134, -21.912393)"/>
        <path id="path-3" class="st0 fukuoka" d="M 87.651 441.236 C 87.177 440.159 84.44 434.863 86.363 435.247 C 86.839 435.342 89.868 430.824 91.702 428.492 C 92.692 427.232 96.302 427.18 98.057 425.88 C 99.819 424.571 99.159 422.582 100.709 420.288 C 104.651 414.451 120.457 418.374 124.063 418.998 C 126.268 419.38 126.727 422.411 126.824 422.596 C 127.21 423.348 130.174 429.908 131.985 431.497 C 133.052 432.434 136.24 431.506 136.938 432.589 C 140.576 438.225 121.435 439.082 119.246 442.152 C 116.288 446.305 120.099 457.114 117.589 458.973 C 116.545 459.747 113.365 455.639 111.352 456.091 C 109.701 456.464 106.527 459.616 105.471 461.19 C 104.618 462.467 101.2 465.414 101.013 463.867 C 100.711 461.39 97.072 455.561 97.365 454.147 C 98.068 450.735 105.575 447.84 104.577 445.195 C 103.392 442.061 103.443 442.203 102.82 442.437 C 100.168 443.431 87.906 441.826 87.651 441.236 Z" style="stroke-linejoin: round; stroke-width: 0.99026px; stroke: rgba(255, 255, 255, 0); fill: rgb(0, 174, 255);" transform="matrix(0.956243, 0.293492, -0.291659, 0.956243, 133.434848, -13.550751)"/>
        <path id="path-4" class="st0 saga" d="M 77.655 436.607 C 81.056 433.318 72.405 433.162 72.377 431.525 C 72.318 427.731 76.675 429.224 76.846 428.275 C 77.023 427.275 75.422 424.363 77.37 423.278 C 80.568 421.494 82.116 425.939 82.946 426.559 C 86.655 429.332 104.708 426.483 105.736 431.867 C 106.383 435.254 101.163 436.749 99.528 438.734 C 98.526 439.954 99.941 443.535 98.339 443.344 C 95.288 442.976 91.788 442.762 89.229 444.368 C 88.508 444.822 95.105 453.275 92.611 453.01 C 85.049 452.21 76.544 437.682 77.655 436.607 Z" style="stroke-linejoin: round; stroke-width: 0.99026px; stroke: rgba(255, 255, 255, 0); fill: rgb(0, 174, 255);" transform="matrix(0.956243, 0.293492, -0.291659, 0.956243, 131.691947, -7.333015)"/>
        <path id="path-5" class="st0 nagasaki" d="M 81.487 450.307 C 83.285 452.345 87.471 442.823 92.137 443.469 C 97.328 444.189 101.723 460.062 101.915 461.046 C 102.201 462.514 90.835 473.04 89.751 473.878 C 86.664 476.263 85.658 470.773 83.496 470.297 C 77.298 468.931 75.438 478.352 69.804 474.181 C 65.948 471.326 73.943 466.16 71.875 463.919 C 68.837 460.628 67.021 462.085 64.435 457.353 C 62.914 454.565 65.777 451.505 65.653 448.461 C 65.544 445.712 62.469 442.87 62.407 441.376 C 62.318 439.183 63.224 437.016 63.385 434.28 C 63.399 434.032 66.41 427.144 69.817 427.527 C 71.956 427.768 74.598 434.989 75.678 435.702 C 76.063 435.953 75.39 438.31 75.05 439.277 C 74.99 439.444 76.036 442.419 76.215 442.759 C 77.173 444.564 79.591 448.159 81.487 450.307 Z" style="stroke-linejoin: round; stroke-width: 0.99026px; stroke: rgba(255, 255, 255, 0); fill: rgb(0, 174, 255);" transform="matrix(0.956243, 0.293492, -0.291659, 0.956243, 134.772737, -3.658725)"/>
        <path id="path-6" class="st0 miyazaki" d="M 138.786 486.783 C 138.343 488.503 141.098 487.372 141.079 488.884 C 141.068 489.574 139.968 490.033 139.42 490.018 C 138.357 489.987 133.383 495.543 132.219 499.745 C 130.766 504.97 128.609 510.85 127.91 516.179 C 127.383 520.182 128.702 541.504 121.062 539.956 C 115.581 538.845 118.998 532.58 117.519 530.107 C 116.19 527.889 112.66 529.3 111.247 527.3 C 108.464 523.363 106.698 518.844 104.252 515.667 C 102.843 513.842 94.442 508.089 97.361 505.876 C 99.047 504.6 112.377 504.263 112.475 502.371 C 112.855 494.836 105.864 475.587 119.426 471.055 C 125.428 469.049 127.431 473.959 130.068 474.334 C 133.6 474.832 146.657 471.693 148.17 472.012 C 148.797 472.144 139.663 483.366 138.786 486.783 Z" style="stroke-linejoin: round; stroke-width: 0.99026px; stroke: rgba(255, 255, 255, 0); fill: rgb(0, 174, 255);" transform="matrix(0.956243, 0.293492, -0.291659, 0.956243, 152.73622, -13.834718)"/>
        <path d="M 99.998 466.656 C 99.998 479.716 74.497 510.37 73.723 510.087 C 72.949 509.804 61.06 497.928 62.385 491.351 C 63.71 484.774 63.643 484.881 65.863 481.5 C 68.875 476.913 73.984 481.04 77.523 480.056 C 79.211 479.587 80.801 476.36 80.928 476.266 C 81.457 475.875 83.009 473.067 87.38 472.409 C 97.196 470.932 99.998 459.404 99.998 466.656 Z" style="stroke-width: 0.99026px; stroke: rgba(255, 255, 255, 0); fill: rgb(0, 174, 255);"/>
      </g>
      <path id="kagoshima" class="st0 kagoshima" d="M 114.413 524.88 C 115.008 525.566 107.418 529.468 107.205 529.698 C 102.83 534.434 97.989 535.888 92.136 539.24 C 91.238 539.754 89.824 542.011 89.627 541.036 C 88.937 537.65 91.002 534.174 91.331 529.693 C 91.554 526.7 92.588 525.824 92.967 524.835 C 94.695 520.341 92.96 517.084 88.825 516.776 C 81.541 516.237 84.793 531.356 82.003 530.94 C 79.214 530.525 76.024 532.328 73.532 531.069 C 71.462 530.021 72.101 527.532 72.59 526.634 C 73.158 525.588 72.838 525.814 73.687 524.752 C 76.062 521.785 77.063 519.045 77.829 516.19 C 78.769 512.687 71.716 511.307 71.69 508.67 C 71.685 508.151 71.827 507.623 72.048 507.148 C 73.43 504.172 76.372 501.7 76.581 497.765 C 76.588 497.621 80.114 492.16 82.272 488.095 C 83.467 485.849 87.259 492.991 87.979 493.48 C 93.256 497.062 96.517 502.939 99.802 507.473 C 100.262 508.11 101.579 512.375 104.119 514.861 C 105.353 516.07 107.832 515.566 108.808 516.501 C 110.336 517.963 111.441 521.46 114.413 524.88 Z" style="fill: rgb(154, 154, 154); stroke-linejoin: round; stroke: rgb(255, 255, 255); stroke-width: 0.99026px;" transform="matrix(0.960363, 0.279628, -0.277881, 0.960363, 146.650149, -5.632305)"/>
      <path id="oita" class="st0 oita" d="M 134.983 443.797 C 138.802 442.681 144.513 434.484 146.798 444.694 C 148.778 453.537 136.517 451.121 138.389 456.762 C 138.644 457.536 148.609 457.975 149.924 457.997 C 150.241 458.003 152.931 456.63 152.902 457.074 C 152.801 458.68 148.996 461.61 149.449 462.882 C 149.707 463.605 153.218 463.001 153.218 463.001 C 150.221 467.171 155.62 464.195 156.347 464.388 C 158.452 464.945 152.476 466.755 152.899 468.939 C 153.456 471.812 158.39 469.885 159.481 470.606 C 159.501 470.62 156.156 471.879 155.815 472.877 C 155.208 474.664 153.994 476.684 152.121 477.284 C 151.594 477.452 143.761 479.467 139.792 478.865 C 135.579 478.225 130.541 475.251 129.172 473.823 C 125.644 470.145 128.286 463.297 121.692 460.659 C 121.528 460.593 121.332 460.613 121.156 460.636 C 115.483 461.393 121.664 464.337 119.146 466.842 C 118.174 467.808 113.424 465.14 113.37 464.837 C 112.644 460.763 112.278 450.518 117.686 447.86 C 119.9 446.769 123.057 447.741 124.575 446.544 C 126.472 445.049 133.065 444.358 134.983 443.797 Z" style="fill: rgb(154, 154, 154); stroke-linejoin: round; stroke: rgb(255, 255, 255); stroke-width: 0.99026px;" transform="matrix(0.960363, 0.279628, -0.277881, 0.960363, 133.031154, -19.885505)"/>
      <path id="fukuoka" class="st0 fukuoka" d="M 90.85 441.721 C 90.452 440.796 90.123 437.536 89.845 436.573 C 89.73 436.175 93.689 433.065 94.142 432.415 C 94.949 431.254 94.243 432.603 97.048 430.89 C 98.725 429.868 101.293 431.287 102.901 430.168 C 104.518 429.044 103.104 426.347 104.555 424.374 C 108.244 419.356 116.437 422.406 119.661 422.942 C 121.632 423.27 121.968 425.875 122.05 426.035 C 122.378 426.68 124.877 432.322 126.463 433.688 C 127.398 434.493 130.286 433.695 130.886 434.626 C 134.011 439.471 121.261 439.87 119.217 442.51 C 116.452 446.08 119.603 455.373 117.301 456.972 C 116.344 457.637 113.591 454.104 111.771 454.494 C 110.278 454.814 107.346 457.524 106.358 458.877 C 105.558 459.975 102.413 462.509 102.284 461.179 C 102.076 459.049 98.954 454.037 99.252 452.822 C 99.97 449.888 106.79 447.4 105.959 445.127 C 104.974 442.431 105.015 442.554 104.451 442.754 C 102.042 443.61 91.066 442.229 90.85 441.721 Z" style="fill: rgb(154, 154, 154); stroke-linejoin: round; stroke: rgb(255, 255, 255); stroke-width: 0.99026px;" transform="matrix(0.960363, 0.279628, -0.277881, 0.960363, 127.081423, -13.427859)"/>
      <path id="saga" class="st0 saga" d="M 79.351 443.208 C 82.489 440.38 76.965 437.28 76.983 435.873 C 77.025 432.612 79.919 437.178 80.096 436.362 C 80.28 435.503 77.655 432.682 79.432 431.748 C 82.35 430.215 83.215 435.355 83.945 435.888 C 87.207 438.272 103.914 434.503 104.702 439.133 C 105.198 442.045 100.47 443.33 98.949 445.036 C 98.018 446.085 99.2 449.164 97.766 448.998 C 95.033 448.683 91.894 448.499 89.554 449.881 C 88.895 450.271 94.609 457.537 92.374 457.31 C 85.6 456.622 78.326 444.132 79.351 443.208 Z" style="fill: rgb(154, 154, 154); stroke-linejoin: round; stroke: rgb(255, 255, 255); stroke-width: 0.99026px;" transform="matrix(0.960363, 0.279628, -0.277881, 0.960363, 127.089017, -7.792782)"/>
      <path id="nagasaki" class="st0 nagasaki" d="M 90.252 455.51 C 89.643 456.752 85.959 456.504 86.606 457.724 C 88.903 462.054 96.2 459.568 96.479 461.174 C 96.699 462.437 90.395 468.843 89.401 469.563 C 86.566 471.614 88.473 466.121 86.601 465.527 C 77.849 462.744 80.158 469.102 73.912 470.076 C 73.587 470.126 79.275 465.977 77.474 464.051 C 74.827 461.221 71.528 459.678 69.325 455.611 C 68.027 453.215 71.174 449.193 71.14 446.577 C 71.11 444.213 66.174 444.354 66.156 443.069 C 66.13 441.184 67 439.321 67.214 436.968 C 67.233 436.756 70.111 430.832 73.164 431.162 C 75.079 431.37 77.27 437.578 78.223 438.191 C 78.562 438.408 77.898 440.434 77.568 441.265 C 77.51 441.409 78.375 443.965 78.527 444.258 C 79.342 445.811 81.424 448.902 83.073 450.749 C 86.378 454.448 90.588 454.825 90.252 455.51 Z" style="fill: rgb(154, 154, 154); stroke-linejoin: round; stroke: rgb(255, 255, 255); stroke-width: 0.99026px;" transform="matrix(0.960363, 0.279628, -0.277881, 0.960363, 128.440151, -4.878299)"/>
      <path id="miyazaki" class="st0 miyazaki" d="M 132.056 484.173 C 131.617 485.65 134.121 484.678 134.065 485.979 C 134.038 486.572 133.036 486.968 132.545 486.954 C 131.591 486.928 128.755 493.743 127.601 497.356 C 126.165 501.847 124.079 506.904 123.315 511.484 C 122.741 514.926 123.385 533.258 116.561 531.927 C 111.664 530.972 114.894 525.585 113.626 523.46 C 112.488 521.553 109.281 522.766 108.063 521.047 C 105.662 517.66 104.189 513.777 102.071 511.046 C 100.853 509.475 93.449 504.529 96.127 502.627 C 97.673 501.531 109.66 501.242 109.795 499.613 C 110.328 493.136 104.533 476.587 116.833 472.69 C 122.276 470.965 123.952 475.188 126.312 475.509 C 129.473 475.938 138.556 473.333 139.907 473.607 C 140.468 473.721 132.931 481.234 132.056 484.173 Z" style="fill: rgb(154, 154, 154); stroke-linejoin: round; stroke: rgb(255, 255, 255); stroke-width: 0.99026px;" transform="matrix(0.960363, 0.279628, -0.277881, 0.960363, 144.20143, -13.020656)"/>
      <path id="tokushima" class="st0 tokushima" d="M 261.324 437.236 C 262.191 436.594 262.842 435.608 263.469 436.046 C 263.85 436.311 264.597 442.152 264.519 444.302 C 264.434 446.658 266.069 446.95 267.828 448.919 C 269.652 450.959 268.267 453.677 267.671 454.939 C 266.82 456.751 261.834 457.195 260.69 458.239 C 257.336 461.303 251.719 470.198 247.21 468.922 C 246.75 468.793 244.425 466.759 242.484 463.959 C 240.065 460.476 237.988 456.095 237.888 456.069 C 233.415 454.86 229.157 455.437 222.889 453.975 C 222.421 453.867 220.096 447.801 220.161 447.666 C 220.668 446.61 228.68 443.188 230.226 442.896 C 232.794 442.41 247.921 446.003 249.204 445.885 C 250.348 445.779 260.603 437.767 261.324 437.236 Z" style="fill: rgb(154, 154, 154); stroke-linejoin: round; stroke: rgb(255, 255, 255); stroke-width: 0.99026px;" transform="matrix(0.95656, 0.29245, -0.290624, 0.95656, 142.123715, -51.832715)"/>
      <path id="kagawa" class="st0 kagawa" d="M 219.431 440.689 C 219.057 440.109 227.442 436.436 229.16 435.475 C 230.811 434.549 242.232 429.72 243.229 429.617 C 244.11 429.528 266.191 433.666 267.198 434.61 C 267.963 435.328 253.445 444.2 253.137 444.545 C 252.666 445.073 248.812 443.841 247.912 443.738 C 246.073 443.526 239.734 442.617 235.711 441.745 C 235.052 441.601 225.387 446.877 224.651 447.122 C 224.582 447.145 219.731 441.15 219.431 440.689 Z" style="fill: rgb(154, 154, 154); stroke-linejoin: round; stroke: rgb(255, 255, 255); stroke-width: 0.99026px;" transform="matrix(0.95656, 0.29245, -0.290624, 0.95656, 137.970344, -52.117099)"/>
      <path id="ehime" class="st0 ehime" d="M 172.936 483.358 C 171.81 481.667 171.623 479.988 172.175 476.919 C 172.387 475.742 172.265 475.093 172.939 472.66 C 173.381 471.063 175.198 472.842 175.314 468.3 C 175.348 467.005 170.03 464.636 170.154 464.296 C 170.572 463.141 171.698 459.591 170.167 458.219 C 169.279 457.423 165.676 457.268 166.457 456.375 C 170.23 452.058 177.763 449.763 180.557 445.608 C 185.443 438.336 181.21 434.252 190.426 429.153 C 191.492 428.564 195.315 436.336 199.653 435.548 C 202.515 435.028 212.201 425.62 213.335 426.212 C 213.714 426.411 221.256 438.698 219.99 439.092 C 214.877 440.678 205.044 439.832 200.942 443.011 C 196.368 446.559 197.389 454.264 193.084 457.44 C 191.017 458.965 187.613 456.49 185.907 458.243 C 183.855 460.349 190.363 463.064 189.085 464.728 C 188.816 465.078 189.081 467.062 185.812 469.34 C 183.394 471.024 178.124 471.378 177.961 472.09 C 177.824 472.695 179.449 476.218 180.269 479.156 C 180.387 479.58 173.584 484.33 172.936 483.358 Z" style="fill: rgb(154, 154, 154); stroke-linejoin: round; stroke: rgb(255, 255, 255); stroke-width: 0.99026px;" transform="matrix(0.95656, 0.29245, -0.290624, 0.95656, 140.580781, -36.754944)"/>
      <path id="kochi" class="st0 kochi" d="M 243.572 463.961 C 243.536 464.343 237.518 473.236 237.382 473.133 C 228.649 466.511 223.721 453.1 208.563 463.015 C 201.211 467.825 202.42 469.197 198.779 476.692 C 197.801 478.708 191.217 481.939 190.36 482.938 C 186.999 486.858 188.207 491.916 190.301 495.214 C 190.478 495.493 191.058 496.518 190.73 496.926 C 189.321 498.681 187.505 494.415 186.152 494.288 C 184.155 494.102 177.25 495.066 174.486 495.48 C 171.758 495.888 180.506 488.781 177.807 488.227 C 176.28 487.914 176.732 485.425 176.298 483.994 C 176.043 483.152 173.42 477.266 174.158 476.953 C 175.203 476.508 184.849 475.283 184.868 469.411 C 184.873 467.916 179.999 465.452 181.908 463.494 C 185.261 460.054 187.916 464.838 191.102 460.354 C 193.486 456.998 193.045 451.287 196.944 448.263 C 203.965 442.818 223.799 444.492 230.99 446.435 C 232.492 446.844 234.032 451.535 234.187 451.833 C 234.563 452.551 243.612 463.535 243.572 463.961 Z" style="fill: rgb(154, 154, 154); stroke-linejoin: round; stroke: rgb(255, 255, 255); stroke-width: 0.99026px;" transform="matrix(0.95656, 0.29245, -0.290624, 0.95656, 145.941817, -40.593831)"/>
      <path id="shimane" class="st0 shimane" d="M 169.283 396.237 C 173.031 390.024 182.479 387.154 186.276 381.345 C 189.359 376.628 194.751 375.137 198.206 371.365 C 199.658 369.781 196.082 365.941 198.097 365.072 C 200.882 363.868 208.593 363.689 210.606 360.722 C 211.837 358.907 223.384 358.348 223.665 359.573 C 223.742 359.908 219.062 361.436 219.026 361.817 C 218.881 363.411 222.891 365.213 223.523 365.992 C 223.663 366.165 222.802 371.217 222.672 371.898 C 222.336 373.658 220.618 374.559 219.346 375.439 C 218.396 376.097 215.843 375.923 216.296 381.135 C 216.431 382.715 207.832 380.285 206.162 380.881 C 205.028 381.285 199.321 386.794 198.32 388.536 C 197.921 389.229 200.998 390.361 199.254 390.95 C 194.41 392.584 187.572 393.664 183.916 395.184 C 175.261 398.786 176.868 415.99 166.922 413.824 C 163.939 413.176 166.422 410.375 166.1 409.23 C 165.735 407.933 162.768 409.247 162.645 407.639 C 162.424 404.764 168.133 398.143 169.283 396.237 Z" style="fill: rgb(154, 154, 154); stroke-linejoin: round; stroke: rgb(255, 255, 255); stroke-width: 0.99026px;" transform="matrix(0.95656, 0.29245, -0.290624, 0.95656, 120.706534, -39.699359)"/>
      <path id="yamaguchi" class="st0 yamaguchi" d="M 174.65 410.554 C 174.809 412.283 174.047 419.774 173.482 421.541 C 173.387 421.837 172.381 422.557 171.545 420.66 C 171.289 420.079 161.557 414.296 160.952 413.717 C 156.761 409.696 152.319 415.511 151.665 415.477 C 151.304 415.458 149.343 413.425 148.382 413.492 C 147.275 413.569 145.073 415.887 145.393 414.88 C 145.497 414.559 145.685 413.172 144.941 413.169 C 143.184 413.16 140.078 418.104 137.101 417.796 C 136.251 417.71 135.132 411.382 131.829 412.821 C 130.264 413.502 127.961 420.445 126.04 417.483 C 124.949 415.8 127.74 409.276 127.683 407.06 C 127.647 405.615 124.11 401.068 126.827 399.782 C 127.505 399.464 130.501 398.23 131.776 398.645 C 133.227 399.117 134.28 399.278 136.925 399.245 C 138.717 399.223 136.527 399.185 141.061 398.545 C 144.209 398.101 155.413 384.228 155.558 386.278 C 155.586 386.676 156.923 391.648 156.256 395.119 C 155.985 396.53 157.085 396.621 158.683 396.718 C 160.476 396.825 158.373 401.063 159.179 401.348 C 161.191 402.062 162.434 402.866 163.269 401.901 C 166.234 398.476 168.253 395.811 169.411 395.396 C 170.806 394.894 169.748 398.223 170.161 399.583 C 171.516 404.048 174.564 409.637 174.65 410.554 Z" style="fill: rgb(154, 154, 154); stroke-linejoin: round; stroke: rgb(255, 255, 255); stroke-width: 0.99026px;" transform="matrix(0.95656, 0.29245, -0.290624, 0.95656, 123.937255, -26.384844)"/>
      <path id="tottori" class="st0 tottori" d="M 229.027 379.58 C 230.624 379.574 232.965 376.126 235.696 376.159 C 241.068 376.224 247.666 376.746 252.517 376.773 C 258.183 376.806 260.461 374.514 264.764 373.297 C 267.286 372.585 267.869 378.332 268.972 380.597 C 270.114 382.942 271.513 385.07 271.074 387.688 C 270.713 389.853 260.064 392.426 257.661 392.175 C 257.038 392.11 251.906 385.647 250.729 385.147 C 247.937 383.964 246.516 388.763 244.671 388.844 C 241.733 388.973 239.573 385.862 236.701 385.264 C 234.647 384.836 233.785 390.548 232.752 391.514 C 231.867 392.343 219.757 399.415 218.924 396.222 C 217.339 390.141 224.608 390.619 225.301 386.984 C 225.953 383.571 226.15 379.591 229.027 379.58 Z" style="fill: rgb(154, 154, 154); stroke-linejoin: round; stroke: rgb(255, 255, 255); stroke-width: 0.99026px;" transform="matrix(0.95656, 0.29245, -0.290624, 0.95656, 122.570633, -54.898585)"/>
      <path id="hyogo" class="st0 hyogo" d="M 260.891 384.143 C 262.672 383.799 278.321 380.586 279.277 381.613 C 280.587 383.016 279.119 385.945 281.029 387.892 C 282.591 389.489 285.319 386.427 285.948 388.328 C 288.355 395.606 278.772 393.072 281.601 396.956 C 284.994 401.615 295.018 400.698 298.693 405.641 C 299.671 406.954 301.427 412.308 301.985 413.192 C 302.706 414.333 303.375 417.744 303.752 422.956 C 303.966 425.919 296.327 421.053 294.883 422.543 C 293.799 423.66 292.748 424.586 291.83 423.743 C 290.313 422.354 287.985 426.513 285.954 425.976 C 281.905 424.905 277.405 419.521 273.029 419.521 C 267.399 419.521 261.577 423.173 258.53 422.385 C 257.833 422.206 256.185 411.342 257.032 409.898 C 258.236 407.845 259.302 403.02 261.642 400.904 C 263.257 399.443 266.341 400.942 266.988 398.733 C 268.048 395.12 260.519 384.214 260.891 384.143 Z" style="fill: rgb(154, 154, 154); stroke-linejoin: round; stroke: rgb(255, 255, 255); stroke-width: 0.99026px;" transform="matrix(0.95656, 0.29245, -0.290624, 0.95656, 129.458978, -64.118474)"/>
      <path id="kyoto" class="st0 kyoto" d="M 301.902 386.371 C 303.706 389.644 296.97 389.566 298.045 393.559 C 298.362 394.738 299.765 391.129 300.266 391.554 C 301.299 392.432 301.921 393.744 303.086 394.458 C 303.321 394.602 303.455 394.893 303.495 395.158 C 303.558 395.581 302.029 397.553 302.884 397.798 C 307.093 399.002 302.738 389.829 308.224 391.056 C 309.758 391.399 306.617 396.383 307.849 398.138 C 310.877 402.448 316.905 400.561 319.652 403.379 C 323.43 407.255 321.143 416.78 323.738 421.43 C 324.473 422.745 329.344 428.302 329.47 429.054 C 329.681 430.314 326.38 430.475 325.62 430.516 C 324.053 430.599 317.907 431.306 317.217 427.29 C 316.877 425.307 312.724 419.188 312.333 419.121 C 311.5 418.98 306.01 419.085 304.604 417.67 C 303.608 416.668 307.756 414.345 305.106 412.374 C 303.995 411.548 298.007 412.231 293.427 411.24 C 289.693 410.433 281.221 405.682 281.169 405.518 C 279.714 400.93 295.239 403.05 292.695 395.395 C 292.232 394.005 298.807 380.751 301.902 386.371 Z" style="fill: rgb(154, 154, 154); stroke-linejoin: round; stroke: rgb(255, 255, 255); stroke-width: 0.99026px;" transform="matrix(0.956305, 0.292372, -0.292372, 0.956305, 132.720714, -72.450287)"/>
      <path id="fukui" class="st0 fukui" d="M 314.612 406.783 C 316.443 408.075 319.921 402.015 321.874 401.912 C 323.741 401.815 320.58 403.896 320.878 404.341 C 321.368 405.071 323.896 404.31 324.666 404.159 C 327.963 403.519 322.368 402.074 323.987 401.081 C 325.846 399.938 327.231 403.832 328.732 402.276 C 329.471 401.509 327.24 399.02 327.89 397.569 C 328.71 395.742 333.223 399.909 334.143 398.126 C 335.011 396.446 331.083 392.941 335.593 392.294 C 336.738 392.13 335.588 398.363 337.424 396.765 C 341.947 392.83 333.817 386.613 333.285 383.291 C 333.058 381.877 337.417 376.324 338.303 375.117 C 339.135 373.983 338.103 371.614 339.465 371.12 C 341.703 370.311 346.705 367.801 346.767 367.915 C 349.521 372.926 357.247 378.614 361.554 378.878 C 361.684 378.886 360.535 384.31 360.828 385.092 C 361.077 385.751 368.225 390.316 362.923 391.482 C 358.99 392.347 349.618 390.868 346.877 392.449 C 345.31 393.353 344.66 398.151 344.257 398.06 C 343.169 397.812 342.584 399.356 342.447 399.615 C 342.333 399.832 341.693 400.399 339.891 401.255 C 339.168 401.598 334.352 405.011 333.777 405.195 C 332.231 405.694 330.342 406.564 328.697 407.635 C 327.74 408.261 326.821 409.46 325.602 410.222 C 325.33 410.391 322.082 410.697 321.476 410.552 C 317.801 409.669 314.312 406.569 314.612 406.783 Z" style="fill: rgb(154, 154, 154); stroke-linejoin: round; stroke: rgb(255, 255, 255); stroke-width: 0.99026px;" transform="matrix(0.956305, 0.292372, -0.292372, 0.956305, 128.650624, -82.320445)"/>
      <path id="ishikawa" class="st0 ishikawa" d="M 358.068 377.253 C 362.584 372.996 368.87 365.326 371.564 359.827 C 377.237 348.245 369.542 343.057 372.744 333.688 C 374.107 329.702 382.69 329.962 385.699 328.049 C 388.426 326.315 392.211 323.31 395.671 325.214 C 399.151 327.13 391.743 329.176 391.835 331.282 C 391.99 334.865 384.058 341.285 381.566 337.684 C 381.505 337.598 381.327 337.635 381.237 337.695 C 380.274 338.326 378.528 340.55 378.613 341.674 C 378.73 343.235 377.87 346.435 382.312 345.957 C 383.014 345.882 384.993 341.776 385.046 344.509 C 385.116 348.107 379.668 354.576 379.673 354.719 C 379.699 355.435 377.948 358.888 377.633 359.66 C 375.87 363.984 378.783 385.026 372.715 388.443 C 368.602 390.761 356.965 378.292 358.068 377.253 Z M 379.544 341.701 C 379.297 340.041 380.094 345.426 379.544 341.701 Z" style="fill: rgb(154, 154, 154); stroke-linejoin: round; stroke: rgb(255, 255, 255); stroke-width: 0.99026px;" transform="matrix(0.956305, 0.292372, -0.292372, 0.956305, 120.765384, -94.726619)"/>
      <path id="toyama" class="st0 toyama" d="M 376.938 358.434 C 376.531 360.362 384.412 362.034 385.875 362.502 C 396.456 365.885 402.14 355.604 404.514 353.96 C 410.292 349.953 407.971 378.17 400.994 379.278 C 396.789 379.945 391.405 376.477 387.666 376.415 C 386.89 376.401 381.691 382.845 378.59 383.708 C 376.958 384.162 376.29 381.067 376.102 380.953 C 375.43 380.541 372.98 384.567 371.673 382.984 C 367.096 377.444 377.228 357.057 376.938 358.434 Z" style="fill: rgb(154, 154, 154); stroke-linejoin: round; stroke: rgb(255, 255, 255); stroke-width: 0.99026px;" transform="matrix(0.956305, 0.292372, -0.292372, 0.956305, 124.789605, -97.662808)"/>
      <path id="niigata" class="st0 niigata" d="M 424.239 367.986 C 432.224 364.017 444.208 360.538 449.458 352.759 C 452.827 347.77 455.816 337.531 459.812 333.925 C 466.158 328.201 476.535 327.42 480.818 319.517 C 482.886 315.698 484.183 304.99 486.281 300.034 C 487.045 298.231 490.192 302.405 491.055 304.167 C 491.854 305.801 492.195 306.742 493.919 308.373 C 495.404 309.779 497.728 310.44 497.322 313.505 C 496.769 317.683 490.512 315.847 490.214 317.9 C 489.98 319.515 487.141 328.593 488.009 330.904 C 488.435 332.044 491.926 333.591 491.903 334.257 C 491.812 336.878 488.013 340.292 486.813 342.694 C 486.036 344.246 486.884 346.388 485.571 348.174 C 484.026 350.275 474.336 348.852 472.319 351.586 C 471.861 352.207 473.063 359.233 473.046 360.018 C 473.017 361.517 478.42 370.262 473.019 372.898 C 471.148 373.813 466.604 371.37 465.306 372.561 C 461.464 376.086 461.249 384.725 453.211 382.328 C 452.626 382.153 449.21 371.228 447.298 370.455 C 445.05 369.545 443.871 370.506 442.183 371.818 C 439.104 374.209 436.72 378.024 435.167 378.743 C 426.942 382.552 429.669 373.882 423.789 373.929 C 423.373 373.932 419.29 384.493 418.883 382.461 C 418.59 380.992 419.254 377.843 415.734 372.366 C 415.495 371.992 422.914 368.645 424.239 367.986 Z M 449.356 322.956 C 451.562 326.168 443.629 332.945 441.772 333.885 C 441.759 333.892 437.563 336.091 436.305 335.064 C 435.519 334.422 441.323 329.725 440.742 327.741 C 440.343 326.372 437.009 327.306 436.676 325.921 C 435.976 323.015 443.4 312.193 446.183 311.867 C 448.919 311.546 448.787 322.127 449.356 322.956 Z" style="fill: rgb(154, 154, 154); stroke-linejoin: round; stroke: rgb(255, 255, 255); stroke-width: 0.99026px;" transform="matrix(0.956305, 0.292372, -0.292372, 0.956305, 119.696485, -118.574507)"/>
      <path id="yamagata" class="st0 yamagata" d="M 494.404 315.046 C 495.766 311.669 498.618 310.284 500.595 307.306 C 503.301 303.232 502.493 295.741 505.534 292.136 C 506.951 290.457 512.985 294.245 513.805 294.744 C 521.659 299.517 527.805 298.891 532.75 307.915 C 534.43 310.979 529.951 312.988 529.727 313.949 C 529.175 316.308 532.288 319.993 531.601 321.953 C 529.955 326.657 527.691 334.368 524.622 338.129 C 523.488 339.521 521.183 338.786 520.396 340.18 C 518.172 344.118 522.267 350.41 518.496 353.425 C 515.494 355.826 497.076 350.078 495.86 346.835 C 495.186 345.033 498.27 333.301 498.371 333.183 C 499.967 331.326 503.463 334.02 504.896 330.337 C 505.785 328.054 494.026 315.986 494.404 315.046 Z" style="fill: rgb(154, 154, 154); stroke-linejoin: round; stroke: rgb(255, 255, 255); stroke-width: 0.99026px;" transform="matrix(0.956305, 0.292372, -0.292372, 0.956305, 116.841862, -136.101911)"/>
      <path id="akita" class="st0 akita" d="M 528.736 269.287 C 526.183 258.212 515.411 266.909 515.354 257.346 C 515.339 254.891 521.661 258.117 522.997 256.013 C 529.392 245.946 526.145 244.922 524.97 237.041 C 524.85 236.229 524.436 233.749 525.118 233.245 C 527.778 231.284 534.548 235.242 537.887 235.095 C 542.781 234.882 545.594 238.287 550.525 237.898 C 554.798 237.56 556.062 232.755 560.421 234.634 C 561.449 235.076 562.117 236.201 562.079 238.713 C 562.038 241.388 561.248 245.456 561.011 245.767 C 559.856 247.294 558.355 248.661 558.245 249.067 C 557.867 250.452 557.982 253.198 558.152 254.919 C 558.537 258.83 557.801 263.035 556.543 273.671 C 556.11 277.333 551.861 280.429 550.91 284.55 C 549.61 290.182 558.798 297.173 554.142 305.922 C 553.675 306.799 545.907 308.015 545.335 307.509 C 542.833 305.295 530.704 300.011 527.863 297.574 C 526.994 296.829 531.56 281.537 528.736 269.287 Z" style="fill: rgb(154, 154, 154); stroke-linejoin: round; stroke: rgb(255, 255, 255); stroke-width: 0.99026px;" transform="matrix(0.956305, 0.292372, -0.292372, 0.956305, 102.426284, -145.715924)"/>
      <path id="aomori" class="st0 aomori" d="M 539.428 238.87 C 538.804 236.817 536.773 237.81 536.245 236.764 C 534.063 232.442 550.832 228.352 551.572 226.471 C 552.903 223.093 552.914 219.916 553.467 216.481 C 553.58 215.773 554.377 217.637 554.96 218.089 C 555.561 218.555 556.147 217.129 556.643 216.565 C 557.21 215.92 554.475 215.966 554.297 215.713 C 553.82 215.035 552.17 213.229 550.733 212.021 C 549.921 211.338 553.15 211.248 553.409 210.792 C 553.663 210.345 554.138 205.359 554.217 205.383 C 556.187 205.97 556.842 208.502 558.658 209.202 C 561.128 210.153 561.619 204.499 564.965 208.719 C 567.955 212.491 561.254 223.915 569.399 225.424 C 576.219 226.688 571.359 217.488 574.44 217.267 C 577.116 217.073 580.701 225.426 584.006 223.394 C 587.615 221.174 591.127 207.093 585.348 204.848 C 584.265 204.428 583.648 208.196 580.712 209.237 C 577.285 210.454 571.372 214.187 569.896 211.012 C 568.782 208.616 571.601 199.721 573.136 197.684 C 574.332 196.096 573.422 191.578 575.364 192.225 C 584.685 195.337 585.257 204.038 595.609 197.686 C 595.675 197.646 594.341 202.813 594.249 203.182 C 593.167 207.537 593.116 211.936 592.861 216.349 C 592.678 219.497 593.195 223.203 593.572 226.268 C 593.999 229.751 594.348 235.14 596.759 238.05 C 598.884 240.615 600.84 239.358 603.768 243.188 C 604.563 244.227 601.449 244.511 600.318 245.215 C 597.089 247.221 593.795 247.932 589.758 249.781 C 587.014 251.037 580.397 255.507 577.613 253.862 C 573.807 251.615 579.781 243.62 575.418 241.739 C 571.06 239.861 569.795 244.664 565.521 245.002 C 561.655 245.308 560.061 243.483 556.865 243.148 C 552.984 242.743 539.64 239.563 539.428 238.87 Z" style="fill: rgb(154, 154, 154); stroke-linejoin: round; stroke: rgb(255, 255, 255); stroke-width: 0.99026px;" transform="matrix(0.956305, 0.292372, -0.292372, 0.956305, 90.159968, -156.891472)"/>
      <path id="iwate" class="st0 iwate" d="M 585.788 248.131 C 587.582 251.853 594.717 268.948 596.529 275.166 C 597.285 277.758 596.816 280.553 596.611 283.237 C 596.602 283.342 595.809 286.308 596.069 286.158 C 597.487 285.348 601.2 284.818 599.881 288.797 C 599.518 289.894 595.534 292.101 595.577 292.424 C 595.945 295.196 594.093 295.057 593.809 298.34 C 593.728 299.274 594.169 299.316 594.162 299.955 C 594.147 301.392 593.989 303.081 592.822 303.914 C 591.681 304.729 592.122 308.879 591.974 312.129 C 591.945 312.759 587.498 311.584 587.235 311.668 C 585.951 312.069 588.262 314.583 587.33 315.51 C 586.698 316.139 577.954 320.596 576.71 321.901 C 574.648 324.065 573.545 320.789 571.752 321.872 C 571.16 322.229 569.073 324.763 568.361 324.405 C 565.691 323.059 565.076 319.323 564.467 319.192 C 561.416 318.54 552.607 319.687 551.095 317.136 C 550.002 315.291 551.624 307.731 551.324 306.23 C 550.689 303.066 546.774 299.265 547.636 295.528 C 548.491 291.832 553.171 287.55 553.396 284.077 C 553.556 281.619 551.652 276.24 552.363 274.651 C 552.96 273.313 554.522 273.634 554.591 272.489 C 554.832 268.487 553.685 260.753 556.027 257.854 C 558.016 255.392 558.687 258.819 560.789 258.019 C 570.288 254.404 585.239 246.992 585.788 248.131 Z" style="fill: rgb(154, 154, 154); stroke-linejoin: round; stroke: rgb(255, 255, 255); stroke-width: 0.99026px;" transform="matrix(0.956305, 0.292372, -0.292372, 0.956305, 108.759034, -155.271002)"/>
      <path id="miyagi" class="st0 miyagi" d="M 556.583 314.936 C 564.747 315.47 567.271 310.511 566.541 311.829 C 566.467 311.965 562.542 320.953 561.854 321.765 C 561.175 322.568 564.543 322.975 564.525 323.083 C 564.256 324.696 562.762 324.594 562.005 325.889 C 561.38 326.961 566.88 326.908 564.807 329.847 C 564.135 330.8 561.824 331.061 562.131 332.169 C 562.632 333.976 567.031 334.876 564.167 339.405 C 562.495 342.047 560.268 333.53 557.053 333.085 C 553.592 332.605 551.428 334.048 551.196 336.875 C 551.16 337.308 549.452 334.499 548.344 334.764 C 545.565 335.426 547.357 337.133 547.65 337.443 C 548.254 338.081 545.51 340.23 545.362 340.426 C 543.373 343.084 542.757 345.947 541.973 349.151 C 541.192 352.333 541.909 358.804 538.84 360.656 C 533.677 363.768 532.853 359.397 529.645 357.136 C 528.315 356.198 518.198 354.162 517.677 352.946 C 517.286 352.036 517.826 350.984 517.954 350.009 C 518.101 348.901 522.872 346.542 524.011 345.138 C 525.498 343.303 527.452 336.221 528.416 333.72 C 529.979 329.659 526.557 327.052 527.479 323.113 C 527.774 321.849 530.634 320.766 530.584 317.521 C 530.551 315.47 527.1 313.378 527.082 312.433 C 527.057 311.151 530.027 311.135 531.351 310.937 C 535.245 310.355 548.172 310.038 549.783 312.949 C 550.64 314.501 548.924 315.666 552.772 317.603 C 553.723 318.082 555.608 314.873 556.583 314.936 Z" style="fill: rgb(154, 154, 154); stroke-linejoin: round; stroke: rgb(255, 255, 255); stroke-width: 0.99026px;" transform="matrix(0.956305, 0.292372, -0.292372, 0.956305, 121.674297, -144.20664)"/>
      <path id="fukushima" class="st0 fukushima" d="M 530.676 345.967 C 530.75 346.508 534.348 355.338 534.377 355.928 C 534.864 365.74 537.042 382.618 527.571 388.315 C 526.673 388.856 525.945 391.12 525.349 391.149 C 523.618 391.23 519.354 387.08 517.724 388.206 C 517.119 388.624 515.977 394.898 512.976 393.558 C 503.895 389.501 504.572 382.068 492.878 384.044 C 488.619 384.763 469.926 392.95 467.352 387.637 C 464.431 381.609 468.899 372.472 466.298 366.955 C 465.998 366.319 466.511 365.462 467.038 365.094 C 469.205 363.586 478.573 363.874 479.802 362.203 C 482.611 358.382 478.051 352.713 486.134 348.286 C 492.12 345.009 498.181 354.867 504.567 351.705 C 508.27 349.871 504.2 342.89 506.301 341.882 C 513.135 338.606 520.442 349.808 524.606 350.512 C 528.591 351.185 530.438 344.237 530.676 345.967 Z" style="fill: rgb(154, 154, 154); stroke-linejoin: round; stroke: rgb(255, 255, 255); stroke-width: 0.99026px;" transform="matrix(0.956305, 0.292372, -0.292372, 0.956305, 129.323435, -130.29491)"/>
      <path id="ibaraki" class="st0 ibaraki" d="M 502.624 416.561 C 502.872 419.679 508.856 432.719 510.508 435.5 C 511.521 437.205 516.355 442.239 517.98 446.243 C 519.225 449.311 515.141 451.464 514.049 450.182 C 513.516 449.556 507.263 438.65 503.684 439.464 C 498.799 440.574 493.064 444.279 491.553 444.473 C 491.184 444.521 488.236 430.053 486.683 424.97 C 485.95 422.574 484.901 422.223 482.61 422.901 C 477.501 424.412 478.595 423.487 478.29 422.087 C 477.009 416.21 479.283 429.785 478.886 426.503 C 478.581 423.982 477.219 420.764 477.032 418.293 C 476.921 416.836 479.574 417.813 480.631 417.028 C 482.37 415.737 484.219 416.494 486.395 415.64 C 487.74 415.111 491.68 412.277 491.943 411.945 C 492.165 411.667 491.444 398.081 491.365 397.12 C 491.286 396.16 490.513 388.608 490.789 388.523 C 493.045 387.838 497.392 393.675 499.814 393.39 C 500.893 393.262 501.84 389.295 503.571 388.681 C 505.633 387.946 510.371 391.793 510.809 391.398 C 512.644 389.738 502.093 409.822 502.624 416.561 Z" style="fill: rgb(154, 154, 154); stroke-linejoin: round; stroke: rgb(255, 255, 255); stroke-width: 0.99026px;" transform="matrix(0.95656, 0.29245, -0.290624, 0.95656, 142.23093, -126.389784)"/>
      <path id="chiba" class="st0 chiba" d="M 503.053 450.014 C 502.136 450.847 499.536 454.496 499.342 454.713 C 498.945 455.157 496.483 452.408 495.18 455.826 C 493.844 459.335 495.626 461.957 494.49 465.34 C 493.402 468.582 492.83 467.23 490.554 468.527 C 488.594 469.645 492.617 475.72 492.046 477.125 C 491.582 478.271 479.716 477.381 476.079 475.361 C 475.405 474.986 478.978 470.351 479.003 469.999 C 479.038 469.511 478.034 465.64 478.472 464.147 C 478.772 463.122 479.754 460.067 480.322 458.617 C 480.566 457.994 483.649 454.174 482.417 453.339 C 481.48 452.704 474.352 452.631 472.619 452.881 C 471.852 452.993 470.967 446.701 470.851 445.835 C 470.71 444.782 465.859 421.158 466.237 421.888 C 466.885 423.138 472.011 420.897 473.599 420.619 C 475.18 420.343 477.054 432.589 477.47 433.968 C 478.09 436.022 479.81 441.433 480.839 442.44 C 481.898 443.477 484.411 440.91 487.338 439.896 C 491.109 438.59 490.109 438.662 492.402 438.04 C 494.995 437.336 503.724 449.404 503.053 450.014 Z" style="fill: rgb(154, 154, 154); stroke-linejoin: round; stroke: rgb(255, 255, 255); stroke-width: 0.99026px;" transform="matrix(0.95656, 0.29245, -0.290624, 0.95656, 152.802736, -121.89673)"/>
      <path id="tokyo" class="st0 tokyo" d="M 473.567 426.74 C 473.875 426.778 474.856 434.042 475.044 434.579 C 475.441 435.713 477.941 443.904 477.584 443.879 C 474.097 443.637 467.389 437.349 463.771 439.662 C 461.903 440.856 466.412 444.977 464.084 445.045 C 461.791 445.112 432.797 428.199 433.285 424.724 C 434.225 418.042 458.738 425.269 461.634 425.755 C 469.924 427.145 469.565 426.246 473.567 426.74 Z" style="fill: rgb(154, 154, 154); stroke-linejoin: round; stroke: rgb(255, 255, 255); stroke-width: 0.99026px;" transform="matrix(0.95656, 0.29245, -0.290624, 0.95656, 145.792387, -114.361164)"/>
      <path id="kanagawa" class="st0 kanagawa" d="M 471.809 443.427 C 472.484 443.727 467.562 448.379 467.202 449.396 C 465.19 455.095 477.921 460.21 466.666 462.721 C 464.965 463.102 467.796 459.276 466.409 458.382 C 462.292 455.723 462.881 453.062 456.352 453.485 C 444.424 454.258 436.674 471.61 435.883 468.802 C 435.513 467.49 434.685 449.359 431.67 443.083 C 430.256 440.135 433.688 441.171 436.013 438.637 C 438.329 436.116 436.668 432.712 438.506 433.862 C 440.65 435.204 457.079 445.118 458.96 445.068 C 461.149 445.008 456.701 440.893 458.334 439.693 C 462.054 436.959 467.706 441.606 471.809 443.427 Z" style="fill: rgb(154, 154, 154); stroke-linejoin: round; stroke: rgb(255, 255, 255); stroke-width: 0.99026px;" transform="matrix(0.95656, 0.29245, -0.290624, 0.95656, 150.704518, -112.889576)"/>
      <path id="shizuoka" class="st0 shizuoka" d="M 435.719 447.421 C 435.865 449.198 438.057 448.83 438.004 451.369 C 437.912 455.806 429.528 463.597 426.414 464.577 C 422.814 465.71 423.336 453.217 423.403 452.462 C 423.802 447.875 431.658 444.862 425.229 442.073 C 421.773 440.574 416.751 443.797 413.208 446.758 C 413.141 446.813 411.749 448.009 409.083 450.843 C 408.326 451.646 403.984 458.673 403.491 459.611 C 402.699 461.121 405.909 464.579 404.132 464.633 C 403.9 464.64 378.386 461.74 375.802 461.374 C 374.942 461.25 378.255 457.573 378.396 457.266 C 379.73 454.37 384.868 447.515 386.993 443.821 C 390.123 438.379 399.394 429.102 400.912 425.749 C 401.646 424.125 409.064 435.435 410.447 434.313 C 414.164 431.299 414.529 430.807 416.536 429.997 C 417.829 429.477 420.01 430.392 421.487 430.967 C 424.048 431.965 430.081 428.042 431.06 429.209 C 434.52 433.324 435.614 446.142 435.719 447.421 Z" style="fill: rgb(154, 154, 154); stroke-linejoin: round; stroke: rgb(255, 255, 255); stroke-width: 0.99026px;" transform="matrix(0.956305, 0.292372, -0.292372, 0.956305, 147.916901, -99.496634)"/>
      <path id="aichi" class="st0 aichi" d="M 360.178 453.698 C 359.845 453.149 360.916 452.633 361.155 452.043 C 361.625 450.873 372.723 447.876 372.199 447.389 C 371.515 446.752 371.722 444.291 369.948 443.903 C 367.719 443.415 363 447.613 360.262 444.962 C 357.855 442.635 361.312 442.594 359.961 440.999 C 359.758 440.758 356.458 444.884 356.463 445.273 C 356.472 445.99 357.146 446.233 355.991 446.986 C 354.961 447.657 353.493 446.909 353.773 445.57 C 354.064 444.166 355.823 432.97 355.355 431.867 C 355.311 431.76 352.848 429.823 352.35 429.359 C 351.486 428.552 351.137 427.904 349.566 427.018 C 348.823 426.599 350.223 423.111 350.743 420.768 C 352.481 412.929 361.617 421.104 365.97 423.909 C 368.311 425.416 375.778 425.977 378.095 424.836 C 378.668 424.554 379.288 423.814 379.866 424.088 C 380.926 424.59 379.356 427.142 380.509 427.408 C 382.637 427.899 385.977 428.367 389.107 428.8 C 390.22 428.953 388.189 432.425 387.714 433.187 C 386.217 435.585 378.313 447.707 376.604 449.779 C 376.415 450.007 360.646 454.469 360.178 453.698 Z" style="fill: rgb(154, 154, 154); stroke-linejoin: round; stroke: rgb(255, 255, 255); stroke-width: 0.99026px;" transform="matrix(0.956305, 0.292372, -0.292372, 0.956305, 143.466238, -88.710445)"/>
      <path id="mie" class="st0 mie" d="M 350.959 428.965 C 351.297 429.342 339.845 443.491 341.832 449.153 C 342.889 452.167 359.169 454.989 358.564 459.337 C 358.425 460.338 356.543 460.527 356.365 461.521 C 356.306 461.862 359.709 468.716 353.892 467.625 C 353.475 467.546 352.24 467.566 351.74 467.499 C 350.553 467.336 350.013 468.121 349.768 463.431 C 349.709 462.319 345.551 466.417 344.755 466.777 C 341.75 468.14 338.068 467.377 332.969 470.816 C 331.668 471.693 332.629 473.893 331.954 475.27 C 331.352 476.493 328.622 475.137 327.831 476.258 C 326.728 477.826 331.586 480.098 330.195 481.442 C 329.871 481.757 323.423 483.352 321.334 487.65 C 320.067 490.25 320.33 493.802 318.037 495.657 C 317.202 496.332 310.133 489.706 311.707 488.092 C 316.95 482.715 320.627 478.346 321.477 471.205 C 321.727 469.093 321.37 467.247 321.278 464.397 C 321.224 462.668 320.903 460.208 322.038 459.386 C 323.974 457.978 327.817 458.571 327.55 455.65 C 327.536 455.493 327.481 455.339 327.41 455.197 C 326.357 453.075 322.634 453.615 320.986 451.808 C 319.209 449.857 321.502 447.815 321.535 447.104 C 321.608 445.53 315.514 436.155 315.974 435.591 C 318.254 432.788 323.012 431.723 324.093 429.328 C 324.824 427.709 325.134 426.335 326.412 425.348 C 327.954 424.157 330.367 423.381 329.593 421.464 C 329.395 420.972 327.73 418.687 329.413 418.345 C 330.511 418.122 333.422 416.452 333.595 416.362 C 335.46 415.388 339.281 417.135 341.669 418.148 C 344.244 419.238 347.473 422.793 347.59 423.006 C 348.049 423.827 349.547 427.402 350.959 428.965 Z" style="fill: rgb(154, 154, 154); stroke-linejoin: round; stroke: rgb(255, 255, 255); stroke-width: 0.99026px;" transform="matrix(0.95656, 0.29245, -0.290624, 0.95656, 147.299795, -78.137721)"/>
      <path id="wakayama" class="st0 wakayama" d="M 302.88 494.546 C 297.892 496.464 288.803 493.241 285.061 490.364 C 283.462 489.135 281.487 487.501 281.535 485.541 C 281.583 483.647 285.722 484.595 284.313 483.432 C 280.544 480.326 271.751 477.39 269.88 475.141 C 268.016 472.899 273.824 469.801 274.353 467.905 C 274.831 466.196 271.417 466.044 271.442 465.775 C 271.712 462.898 273.99 462.838 275.463 462.36 C 278.413 461.407 269.162 454.642 270.82 452.126 C 272.684 449.302 277.515 450.813 280.904 449.985 C 285.76 448.798 292.177 444.532 295.812 447.814 C 303.662 454.898 291.725 459.624 290.907 465.926 C 290.779 466.922 293.193 469.477 293.654 470.288 C 294.587 471.933 291.979 475.253 294.17 476.28 C 295.314 476.817 301.085 473.917 302.799 475.53 C 304.365 477.004 311.007 484.696 310.856 484.978 C 310.148 486.291 304.39 493.965 302.88 494.546 Z" style="fill: rgb(154, 154, 154); stroke-linejoin: round; stroke: rgb(255, 255, 255); stroke-width: 0.99026px;" transform="matrix(0.95656, 0.29245, -0.290624, 0.95656, 149.878139, -64.346442)"/>
      <path id="osaka" class="st0 osaka" d="M 292.963 451.292 C 296.72 449.613 294.639 442.378 296.166 439.469 C 297.92 436.129 295.835 426.378 294.769 422.332 C 294.365 420.798 290.637 412.876 291.225 412.222 C 291.4 412.026 296.261 410.981 296.928 411.941 C 297.115 412.21 298.543 413.802 296.478 416.088 C 295.833 416.802 298.921 417.51 300.614 417.663 C 302.353 417.82 304.117 418.042 304.884 418.864 C 306.788 420.906 308.746 425.726 309.446 427.543 C 311.482 432.828 306.688 437.964 306.599 439.038 C 306.429 441.13 310.239 444.294 307.961 447.492 C 306.766 449.173 302.499 449.139 298.116 448.983 C 297.478 448.962 292.148 451.655 292.963 451.292 Z" style="fill: rgb(154, 154, 154); stroke-linejoin: round; stroke: rgb(255, 255, 255); stroke-width: 0.99026px;" transform="matrix(0.95656, 0.29245, -0.290624, 0.95656, 139.180074, -69.256212)"/>
      <path id="okayama" class="st0 okayama" d="M 256.53 409.253 C 256.299 410.375 256.055 411.095 255.893 411.214 C 254.579 412.162 254.619 413.242 253.31 414.028 C 252.645 414.428 251.732 415.179 251.042 415.535 C 249.342 416.414 238.9 422.713 237.949 422.098 C 236.262 421.004 236.216 418.561 234.461 418.561 C 233.791 418.561 226.725 423.575 225.945 422.903 C 225.446 422.471 228.083 421.226 227.889 420.388 C 227.638 419.314 225.501 420.852 224.948 420.832 C 223.731 420.786 224.32 418.64 223.895 417.555 C 221.428 411.268 220.329 402.496 218.38 396.131 C 217.927 394.655 226.642 391.196 227.163 390.707 C 228.195 389.741 229.058 384.03 231.11 384.457 C 233.984 385.055 236.144 388.165 239.082 388.037 C 240.926 387.957 242.348 383.156 245.14 384.34 C 246.317 384.839 251.449 391.303 252.071 391.368 C 254.935 391.666 258.036 389.45 260.539 388.806 C 260.894 388.714 255.19 399.491 255.169 401.022 C 255.136 403.583 256.566 409.081 256.53 409.253 Z" style="fill: rgb(154, 154, 154); stroke-linejoin: round; stroke: rgb(255, 255, 255); stroke-width: 0.99026px;" transform="matrix(0.95656, 0.29245, -0.290624, 0.95656, 127.685793, -52.499184)"/>
      <path id="hiroshima" class="st0 hiroshima" d="M 222.204 408.096 C 220.983 410.359 216.721 412.669 217.009 411.421 C 217.12 410.941 216.219 409.963 215.926 410.367 C 214.393 412.484 213.421 412.773 212.07 413.287 C 209.438 414.289 208.122 414.894 206.16 415.317 C 203.681 415.852 201.928 415.926 200.701 415.276 C 200.493 415.167 195.325 420.287 192.963 420.079 C 188.149 419.654 190.201 414.539 184.768 412.855 C 178.38 410.874 177.638 424.966 177.079 424.297 C 176.474 423.571 172.646 414.083 172.383 413.221 C 172.309 412.973 171.124 408.457 171.296 407.442 C 173.612 393.897 183.881 396.388 194.504 392.805 C 196.248 392.215 193.171 391.083 193.57 390.39 C 194.738 388.359 199.322 384.284 200.86 383.026 C 202.806 381.433 212.77 382.979 215.302 383.306 C 218.574 383.728 221.046 399.168 221.307 402.628 C 221.383 403.663 223.515 405.665 222.204 408.096 Z" style="fill: rgb(154, 154, 154); stroke-linejoin: round; stroke: rgb(255, 255, 255); stroke-width: 0.99026px;" transform="matrix(0.95656, 0.29245, -0.290624, 0.95656, 125.769726, -40.079058)"/>
      <path id="hokkaido" class="st0 hokkaido" d="M 702.905 107.694 C 700.317 110.275 703.565 107.036 702.905 107.694 M 748.802 145.175 C 748.85 145.475 746.056 144.658 745.987 144.674 C 743.277 145.319 739.728 145.337 737.203 146.722 C 736.679 147.008 736.432 147.71 736.735 148.237 C 738.115 150.639 735.459 148.616 733.197 149.889 C 732.552 150.251 734.173 151.62 733.526 151.977 C 729.544 154.175 728.463 148.992 726.923 149.889 C 725.663 150.623 727.764 153.084 726.696 154.049 C 723.975 156.503 713.411 150.931 708.948 152.475 C 697.894 156.3 689.185 167.678 684.245 177.213 C 682.618 180.352 685.414 189.85 681.043 191.813 C 680.622 192.002 676.38 186.892 672.722 185.207 C 667.956 183.011 662.538 181.545 657.96 179.009 C 655.517 177.656 651.921 173.158 649.334 171.944 C 642.683 168.825 635.537 163.275 627.462 168.019 C 626.284 168.712 615.025 177.906 614.128 177.947 C 613.477 177.978 609.035 164.717 600.055 167.46 C 596.573 168.524 590.509 177.684 594.739 180.405 C 603.713 186.183 606.588 183.763 614.011 192.346 C 615.757 194.365 619.914 192.892 620.676 196.597 C 620.791 197.149 618.842 197.107 618.358 197.343 C 617.102 197.955 616.523 199.792 614.947 199.836 C 611.308 199.94 610.569 196.672 606.78 198.433 C 606.579 198.526 606.337 198.679 606.13 198.597 C 605.798 198.467 608.006 194.156 604.727 195.566 C 599.137 197.968 600.012 205.945 593.302 208.339 C 591.595 208.949 588.994 213.574 586.313 209.811 C 581.139 202.552 590.254 198.053 589.695 192.344 C 589.012 185.376 581.332 185.075 578.946 179.92 C 577.379 176.535 580.437 174.823 580.798 171.583 C 581.019 169.578 579.726 167.582 580.623 165.66 C 582.034 162.638 585.077 164.998 586.849 163.128 C 592.176 157.506 595.687 161.153 600.684 151.722 C 603.002 147.349 591.436 144.58 595.942 139.24 C 599.927 134.516 604.832 142.39 608.824 144.172 C 611.251 145.256 613 142.633 615.186 142.901 C 615.98 142.997 614.901 143.878 614.982 144.264 C 616.368 150.813 626.688 141.221 627.377 139.523 C 629.449 134.416 623.155 128.786 625.046 123.729 C 626.587 119.611 630.706 120.633 633.104 117.157 C 635.893 113.115 634.353 106.881 634.303 102.736 C 634.248 98.192 638.674 93.857 638.486 88.586 C 638.364 85.166 638.061 82.42 637.247 79.084 C 635.097 70.272 631.285 68.584 634.191 61.215 C 634.564 60.272 632.845 57.498 634.69 56.902 C 634.757 56.88 636.328 59.323 639.345 58.001 C 640.899 57.321 641.154 53.816 642.96 54.123 C 643.995 54.3 646.743 59.414 647.432 59.968 C 652.439 63.984 656.722 68.81 660.5 73.869 C 668.224 84.21 677.791 97.974 690.398 103.669 C 692.536 104.635 694.847 105.223 697.022 106.113 C 697.74 106.407 694.643 105.557 694.177 106.379 C 693.681 107.255 695.107 108.158 695.587 109.039 C 696.742 111.156 704.752 108.1 707.149 108.439 C 711.466 109.052 703.877 111.382 707.707 112.616 C 709.803 113.29 709 108.64 710.805 108.819 C 711.067 108.844 712.392 113.316 713.306 114.035 C 716.536 116.582 721.511 116.622 725.502 116.694 C 727.957 116.738 737.455 108.068 739.159 105.477 C 740.399 103.59 742.059 98.19 743.301 100.075 C 746.668 105.187 738.634 112.1 736.792 116.603 C 734.689 121.745 739.001 134.74 743.358 138.952 C 747.322 142.784 740.413 136.599 740.772 139.165 C 741.01 140.857 746.425 142.605 748.419 142.897 C 748.631 142.927 747.691 141.335 748.008 141.05 C 749.687 139.535 748.048 140.527 748.802 145.175 M 741.527 131.888 C 740.723 131.9 743.632 130.49 742.963 130.072 C 741.768 129.326 740.104 129.213 739.133 128.222 C 738.203 127.272 744.032 131.85 741.527 131.888" style="fill: rgb(154, 154, 154); stroke-linecap: square; stroke-miterlimit: 2; stroke: rgb(255, 255, 255); stroke-width: 0.99026px;" transform="matrix(0.95656, 0.29245, -0.290624, 0.95656, 67.391268, -188.321218)"/>
      <path id="gunma" class="st0 gunma" d="M 451.848 370.461 C 452.381 369.917 452.539 368.372 453.252 368.677 C 454.792 369.336 455.009 371.555 456.432 372.421 C 458.437 373.642 462.412 372.562 463.161 374.707 C 464.424 378.325 460.333 382.255 461.174 385.982 C 461.608 387.902 466.223 387.179 466.419 389.133 C 466.739 392.353 462.265 396.442 462.833 397.726 C 463.474 399.176 471.318 404.823 470.509 404.705 C 463.426 403.665 461.078 404.095 454.055 402.729 C 451.648 402.261 452.382 406.957 450.518 408.477 C 447.458 410.972 443.358 412.025 439.93 414.045 C 439.41 414.35 438.805 415.993 438.47 415.518 C 436.743 413.069 433.976 410.241 433.825 407.176 C 433.673 404.044 437.451 400.075 435.91 397.377 C 434.48 394.877 424.598 397.414 426.916 393.891 C 434.7 382.063 443.698 378.752 451.848 370.461 Z" style="fill: rgb(154, 154, 154); stroke-linejoin: round; stroke: rgb(255, 255, 255); stroke-width: 0.99026px;" transform="matrix(0.956305, 0.292372, -0.292372, 0.956305, 134.232352, -114.016219)"/>
      <path id="nagano" class="st0 nagano" d="M 423.676 382.794 C 425.047 386.855 429.932 382.903 431.83 385.632 C 434.047 388.821 429.604 394.32 430.188 396.385 C 430.946 399.067 436.309 405.405 435.569 407.533 C 433.32 414.004 423.309 399.332 417.692 409.652 C 415.94 412.871 413.679 427.368 412.307 429.944 C 411.004 432.394 404.298 436.622 402.6 439.532 C 402.392 439.889 395.807 438.13 393.351 438.078 C 389.711 438.002 393.467 429.054 393.424 428.918 C 392.364 425.605 391.818 423.137 390.477 419.201 C 389.384 415.992 383.07 414.76 384.028 411.632 C 385.296 407.492 390.326 405.801 392.573 401.059 C 393.705 398.671 393.225 387.263 392.989 386.642 C 392.743 385.994 398.845 377.826 399.019 375.969 C 399.121 374.866 401.625 362.816 404.808 362.792 C 409.935 362.753 407.745 366.673 410.708 367.838 C 417.322 370.438 421.344 358.576 427.571 358.697 C 429.237 358.729 432.324 365.14 433.5 369.512 C 434.024 371.463 431.613 373.483 430.512 374.818 C 427.358 378.648 423.174 381.306 423.676 382.794 Z" style="fill: rgb(154, 154, 154); stroke-linejoin: round; stroke: rgb(255, 255, 255); stroke-width: 0.99026px;" transform="matrix(0.956305, 0.292372, -0.292372, 0.956305, 134.602219, -102.368847)"/>
      <path id="tochigi" class="st0 tochigi" d="M 476.583 413.401 C 476.426 413.393 474.866 413.582 472.157 413.565 C 471.568 413.561 467.57 414.017 466.401 413.52 C 465.938 413.323 462.214 406.41 461.626 405.148 C 461.215 404.263 467.274 400.029 466.215 397.649 C 465.432 395.888 461.426 397.613 461.036 395.077 C 460.325 390.453 462.025 384.533 462.688 383.713 C 463.222 383.051 470.838 381.267 478.926 379.479 C 481.647 378.879 486.378 378.086 490.001 377.789 C 493.286 377.519 494.658 379.527 494.824 379.635 C 495.383 379.997 495.786 385.025 496.009 389.976 C 496.178 393.741 496.976 407.682 496.969 407.829 C 496.928 408.754 489.491 410.727 486.208 411.686 C 484.568 412.164 477.312 413.353 476.583 413.401 Z" style="fill: rgb(154, 154, 154); stroke-miterlimit: 0; stroke-linecap: round; stroke: rgb(255, 255, 255); stroke-width: 0.99026px;" transform="matrix(0.956305, 0.292372, -0.292372, 0.956305, 137.025739, -122.670675)"/>
      <path id="gifu" class="st0 gifu" d="M 366.315 375.987 C 367.524 376.162 367.332 379.104 368.504 378.777 C 370.562 378.206 373.562 373.535 374.967 372.157 C 377.429 369.741 387.748 372.346 390.813 374.034 C 391.013 374.142 392.021 381.179 391.834 384.178 C 391.659 386.977 389.561 391.807 388.837 392.493 C 387.02 394.214 383.262 395.21 382.025 399.251 C 381.751 400.146 386.042 401.336 386.498 402.204 C 388.525 406.058 391.48 415.655 391.497 416.512 C 391.523 417.879 389.723 422.412 389.603 422.535 C 388.643 423.52 382.745 423.249 381.468 423.165 C 375.255 422.762 371.396 417.382 368.318 417.265 C 358.934 416.908 362.089 423.115 357.974 427.815 C 356.717 429.252 353.268 424.22 352.602 423.922 C 350.335 422.904 347.99 427.06 346.969 423.833 C 346.276 421.642 348.237 419.153 348.132 416.866 C 347.884 411.383 339.211 406.839 344.641 401.275 C 346.022 399.859 358.388 400.597 361.093 400.002 C 366.318 398.853 358.772 393.779 358.923 392.565 C 359.586 387.221 364.323 375.699 366.315 375.987 Z" style="fill: rgb(154, 154, 154); stroke-linejoin: round; stroke: rgb(255, 255, 255); stroke-width: 0.99026px;" transform="matrix(0.956305, 0.292372, -0.292372, 0.956305, 132.890696, -89.943051)"/>
      <path id="shiga" class="st0 shiga" d="M 340.957 412.055 C 340.479 414.771 342.862 417.569 342.181 419.553 C 341.687 420.989 338.338 421.353 337.135 424.049 C 335.156 428.484 334.495 430.402 330.992 430.542 C 329.002 430.623 328.554 431.953 327.526 432.751 C 326.899 433.236 326.292 432.083 325.622 431.655 C 319.757 427.896 319.191 422.275 320.358 414.376 C 320.64 412.459 317.54 409.013 317.549 408.992 C 318.709 406.051 329.618 401.362 332.08 399.491 C 333.507 398.409 333.05 396.983 333.647 396.532 C 334.191 396.12 336.341 395.997 336.611 396.128 C 337.051 396.342 338.014 398.347 338.864 399.676 C 339.421 400.543 340.978 403.898 341.4 404.45 C 343.091 406.671 341.349 409.825 340.957 412.055 Z" style="fill: rgb(154, 154, 154); stroke-linejoin: round; stroke: rgb(255, 255, 255); stroke-width: 0.99026px;" transform="matrix(0.956305, 0.292372, -0.292372, 0.956305, 135.596344, -78.350709)"/>
      <path id="saitama" class="st0 saitama" d="M 444.979 410.375 C 445.789 407.765 444.753 405.127 447.836 405.271 C 452.483 405.488 475.213 404.212 475.921 407.245 C 476.256 408.678 476.795 412.212 477.472 417.053 C 477.561 417.688 478.169 422.703 479.045 426.183 C 479.454 427.806 450.569 421.934 447.477 421.353 C 446.31 421.134 441.742 421.097 440.085 421.871 C 439.486 422.151 438.907 423.401 437.686 422.972 C 435.613 422.243 430.937 418.84 432.199 417.643 C 435.253 414.747 444.457 412.057 444.979 410.375 Z" style="fill: rgb(154, 154, 154); stroke-linejoin: round; stroke: rgb(255, 255, 255); stroke-width: 0.99026px;" transform="matrix(0.95656, 0.29245, -0.290624, 0.95656, 140.419694, -114.923304)"/>
      <path id="yamanashi" class="st0 yamanashi" d="M 414.43 411.802 C 417.455 410.784 417.996 411.353 419.242 411.847 C 420.396 412.304 427.04 415.344 427.466 415.474 C 427.513 415.487 428.111 412.555 428.561 412.721 C 428.666 412.759 429.31 412.303 432.689 415.164 C 433.304 415.687 441.571 422.167 443.334 423.9 C 446.599 427.109 436.901 434.572 435.21 435.502 C 428.913 438.971 425.788 433.655 422.709 434.898 C 419.622 436.144 415.91 441.748 414.276 441.476 C 412.235 441.137 411.369 441.152 409.93 439.668 C 408.786 438.486 406.409 426.943 408.41 419.789 C 409.904 414.446 412.559 412.432 414.43 411.802 Z" style="fill: rgb(154, 154, 154); stroke-linejoin: round; stroke: rgb(255, 255, 255); stroke-width: 0.99026px;" transform="matrix(0.956305, 0.292372, -0.292372, 0.956305, 143.261982, -105.867253)"/>
      <path id="nara" class="st0 nara" d="M 319.238 444.418 C 320.02 446.981 325.872 446.1 326.125 448.851 C 326.465 452.558 321.564 451.268 320.846 454.072 C 320.049 457.181 320.203 467.373 320.083 467.947 C 319.931 468.68 317.882 472.378 317.079 473.559 C 313.602 478.679 306.714 483.334 300.335 480.341 C 298.42 479.444 300.233 476.802 300.112 475.467 C 299.957 473.725 296.87 471.547 297.072 469.987 C 297.571 466.14 301.837 463.404 302.388 461.864 C 303.052 460.007 299.698 454.674 300.812 451.836 C 301.396 450.348 301.462 447.736 301.462 447.736 C 301.043 446.097 300.039 444.799 300.094 443.132 C 300.145 441.594 301.713 440.057 302.676 438.238 C 303.3 437.059 302.854 433.758 303.338 433.01 C 303.685 432.473 306.777 433.321 307.265 433.744 C 307.712 434.13 313.05 431.917 315.894 432.366 C 316.2 432.414 318.478 438.106 318.873 438.036 C 319.11 437.994 319.975 439.568 320.043 439.721 C 320.463 440.675 319.76 441.162 319.725 441.451 C 319.602 442.447 318.917 443.362 319.238 444.418 Z" style="fill: rgb(154, 154, 154); stroke-linejoin: round; stroke: rgb(255, 255, 255); stroke-width: 0.99026px;" transform="matrix(0.95656, 0.29245, -0.290624, 0.95656, 146.681042, -71.226677)"/>
      <path id="kumamoto" class="st0 kumamoto" d="M 95.27 495.304 C 95.243 494.844 90.777 489.772 90.424 485.853 C 90.327 484.763 95.654 480.7 95.733 479.968 C 95.78 479.537 100.405 476.979 99.713 475.761 C 99.141 474.754 91.454 477.838 91.255 476.885 C 90.768 474.569 96.99 474.438 98.091 473.49 C 100.311 471.577 97.505 459.011 97.984 458.75 C 99.928 457.695 103.834 454.503 108.039 454.643 C 111.648 454.762 110.11 456.158 112.789 458.741 C 113.765 459.682 116.584 462.552 118.32 461.935 C 120.43 461.185 118.487 456.807 120.202 457.16 C 122.057 457.543 124.868 459.233 125.55 462.76 C 126.272 466.498 125.131 466.652 125.329 468.088 C 125.437 468.858 125.156 472.274 124.445 472.74 C 121.75 474.508 114.54 480.649 114.163 483.382 C 113.801 486.017 112.105 496.362 110.365 497.609 C 108.611 498.866 95.416 497.712 95.27 495.304 Z M 79.787 497.829 C 79.207 497.761 83.145 498.227 79.787 497.829 Z M 88.388 477.457 C 87.977 477.358 83.208 483.491 83.151 484.362 C 83.093 485.248 86.533 483.339 88.605 481.303 C 89.672 480.256 90.264 477.911 88.388 477.457 Z M 73.53 494.491 C 69.055 491.972 69.334 491.08 69.527 489.094 C 69.585 488.478 71.645 485.178 70.934 485.163 C 70.334 485.149 75.337 484.985 75.479 485.332 C 75.998 486.601 81.177 483.689 81.274 485.477 C 81.352 486.862 79.14 486.208 77.642 488.187 C 75.935 490.445 74.834 495.225 73.53 494.491 Z M 82.313 492.013 C 81.723 492.098 83.736 491.806 82.313 492.013 Z M 87.927 480.033 Z" style="fill: rgb(154, 154, 154); stroke: rgb(255, 255, 255); stroke-width: 0.99026px;" transform="matrix(0.999911, -0.013376, 0.013293, 0.999911, -6.323823, 1.348106)"/>
      <path id="okinawa" class="st0 okinawa" d="M 66.165 553.523 C 64.699 554.465 62.904 553.566 61.469 554.439 C 59.426 555.682 61.228 558.123 60.325 558.522 C 56.162 560.363 52.512 559.339 49.698 564.996 C 48.932 566.535 45.614 564.269 44.386 565.622 C 42.584 567.608 48.759 572.464 48.179 573.9 C 47.521 575.528 44.131 571.79 43.085 573.481 C 42.815 573.918 39.486 578.764 39.753 580.933 C 39.987 582.835 42.676 580.736 42.82 581.619 C 43.204 583.97 40.367 585.2 39.004 585.478 C 36.991 585.889 37.065 591.069 33.267 588.047 C 32.65 587.556 33.667 586.482 33.565 585.7 C 33.308 583.74 31.152 581.294 32.515 579.862 C 33.916 578.39 38.322 576.199 38.282 573.215 C 38.264 571.854 35.725 566.759 37.695 565.704 C 41.035 563.915 48.463 562.33 50.423 557.878 C 51.795 554.763 42.4 554.635 45.865 549.654 C 46.225 549.137 51.245 549.395 51.927 549.752 C 53.832 550.75 50.628 552.844 52.876 553.424 C 53.065 553.473 53.27 553.46 53.461 553.419 C 58.746 552.289 60.918 546.416 65.191 542.935 C 65.748 542.481 66.607 538.188 66.714 537.792 C 66.834 537.347 69.355 537.941 69.667 538.279 C 71.02 539.745 69.052 551.668 66.165 553.523 Z M 39.214 548.499 C 37.586 546.949 41.745 550.908 39.214 548.499 Z" style="fill: rgb(154, 154, 154); stroke: rgb(255, 255, 255); stroke-width: 0.99026px;"/>
    </g>
    <g transform="matrix(1, 0, 0, 1, -45.657768, -5.743046)">
      <title>PrefectureLabels</title>
      <g style="" transform="matrix(1.084811, 0, 0, 1.421847, -36.328831, -177.800781)">
        <text style="fill: rgb(255, 255, 255); font-family: Krungthep; font-size: 13.544px; font-weight: 700; stroke-width: 2.57406px; white-space: pre;" transform="matrix(0.70446, 0.404889, -0.241434, 0.490827, 6.11932, 88.604294)" x="667.304" y="134.08">14</text>
      </g>
      <text style="fill: rgb(255, 255, 255); font-family: Krungthep; font-size: 12.2851px; font-weight: 700; stroke-width: 2.57406px; white-space: pre;" transform="matrix(0.811143, 0, 0, 0.813992, -477.841431, 342.429077)" x="667.304" y="134.08">42</text>
      <text style="fill: rgb(255, 255, 255); font-family: Krungthep; font-size: 10.9344px; font-weight: 700; line-height: 17.4951px; stroke-width: 2.57406px; white-space: pre;" transform="matrix(0.898452, 0, 0, 0.914544, -522.476135, 318.884094)" x="667.304" y="134.08">41</text>
      <text style="fill: rgb(255, 255, 255); font-family: Krungthep; font-size: 13.0771px; font-weight: 700; stroke-width: 2.57406px; white-space: pre;" transform="matrix(1.127794, 0, 0, 1.223513, -653.940857, 272.700043)" x="667.304" y="134.08">40</text>
      <text style="fill: rgb(255, 255, 255); font-family: Krungthep; font-size: 11.4425px; font-weight: 700; line-height: 18.3079px; stroke-width: 2.57406px; white-space: pre;" transform="matrix(1.127794, 0, 0, 1.223513, -629.616089, 305.068024)" x="667.304" y="134.08">43</text>
      <text style="fill: rgb(255, 255, 255); font-family: Krungthep; font-size: 11.3427px; font-weight: 700; stroke-width: 2.57406px; white-space: pre;" transform="matrix(0.856805, -1.223644, 1.002243, 0.701778, -591.282654, 1223.054932)" x="667.304" y="134.08">45</text>
      <text style="fill: rgb(255, 255, 255); font-family: Krungthep; font-size: 9.80782px; font-weight: 700; stroke-width: 2.57406px; white-space: pre;" transform="matrix(1.267572, 0, 0, 1.223513, -748.954529, 307.069366)" x="667.304" y="134.08">44</text>
      <text style="fill: rgb(255, 255, 255); font-family: Krungthep; font-size: 13.0038px; font-weight: 700; stroke-width: 2.57406px; white-space: pre;" transform="matrix(1.00706, 0, 0, 1.076606, -598.827026, 362.532623)" x="667.304" y="134.08" bx:origin="0.488 0.594">46</text>
      <text style="font-family: Krungthep; font-size: 11.295px; font-weight: 700; stroke-width: 2.57406px; white-space: pre;" transform="matrix(1.952708, 0, 0, 1.416554, -1256.020264, 386.987488)" x="667.304" y="134.08">47</text>
      <text style="fill: rgb(255, 255, 255); font-family: Krungthep; font-size: 14.8px; font-weight: 700; stroke-width: 2.57406px; white-space: pre;" transform="matrix(2.380181, 0, 0, 1.477437, -933.282532, -58.633278)" x="667.304" y="134.08">1</text>
      <text style="fill: rgb(255, 255, 255); font-family: Krungthep; font-size: 14.8353px; font-weight: 700; stroke-width: 2.57406px; white-space: pre;" transform="matrix(1.610141, 0, 0, 1.133286, -514.768433, 80.906021)" x="667.304" y="134.08">2</text>
      <text style="fill: rgb(255, 255, 255); font-family: Krungthep; font-size: 10.8296px; font-weight: 700; line-height: 17.3273px; stroke-width: 2.57406px; white-space: pre;" transform="matrix(2.380181, 0, 0, 1.55149, -1055.257446, 57.497272)" x="667.304" y="134.08">3</text>
      <text style="fill: rgb(255, 255, 255); font-family: Krungthep; font-size: 10.8296px; font-weight: 700; line-height: 17.3273px; stroke-width: 2.57406px; white-space: pre;" transform="matrix(2.380181, 0, 0, 1.477437, -1023.552979, 83.662773)" x="667.304" y="134.08">4</text>
      <text style="fill: rgb(255, 255, 255); font-family: Krungthep; font-size: 10.8296px; font-weight: 700; line-height: 17.3273px; stroke-width: 2.57406px; white-space: pre;" transform="matrix(2.380181, 0, 0, 1.477437, -1081.027591, 119.031437)" x="667.304" y="134.08">5</text>
      <text style="fill: rgb(255, 255, 255); font-family: Krungthep; font-size: 10.8296px; font-weight: 700; line-height: 17.3273px; stroke-width: 2.57406px; white-space: pre;" transform="matrix(2.380181, 0, 0, 1.477437, -1055.107544, 128.765854)" x="667.304" y="134.08">6</text>
      <text style="fill: rgb(255, 255, 255); font-family: Krungthep; font-size: 10.8296px; font-weight: 700; line-height: 17.3273px; stroke-width: 2.57406px; white-space: pre;" transform="matrix(2.380181, 0, 0, 1.477437, -1093.762573, 169.967316)" x="667.304" y="134.08">8</text>
      <text style="fill: rgb(255, 255, 255); font-family: Krungthep; font-size: 10.8296px; font-weight: 700; line-height: 17.3273px; stroke-width: 2.57406px; white-space: pre;" transform="matrix(2.380181, 0, 0, 1.477437, -1141.128906, 158.142838)" x="667.304" y="134.08">7</text>
      <text style="fill: rgb(255, 255, 255); font-family: Krungthep; font-size: 11.4466px; font-weight: 700; stroke-width: 2.57406px; white-space: pre;" transform="matrix(2.170109, 0, 0, 1.397791, -1011.036865, 203.768326)" x="667.304" y="134.08">9</text>
      <text style="fill: rgb(255, 255, 255); font-family: Krungthep; font-size: 11.537px; font-weight: 700; line-height: 18.4591px; stroke-width: 2.57406px; white-space: pre;" transform="matrix(1.502809, 0, 0, 1.386847, -535.290161, 210.443436)" x="667.304" y="134.08">10</text>
      <text style="fill: rgb(255, 255, 255); font-family: Krungthep; font-size: 13.0021px; font-weight: 700; line-height: 20.8033px; stroke-width: 2.57406px; white-space: pre;" transform="matrix(1.173033, 0, 0, 1.230575, -301.097961, 263.893585)" x="667.304" y="134.08">11</text>
      <text style="fill: rgb(255, 255, 255); font-family: Krungthep; font-size: 10.8296px; font-weight: 700; line-height: 17.3273px; stroke-width: 2.57406px; white-space: pre;" transform="matrix(1.69804, 0, 0, 1.477437, -737.118469, 198.60434)" x="667.304" y="134.08">12</text>
      <text style="fill: rgb(255, 255, 255); font-family: Krungthep; font-size: 10.1474px; font-weight: 700; stroke-width: 2.57406px; white-space: pre;" transform="matrix(1.306503, 0, 0, 1.182572, -460.125458, 266.177399)" x="667.304" y="134.08">16</text>
      <text style="fill: rgb(255, 255, 255); font-family: Krungthep; font-size: 10.639px; font-weight: 700; stroke-width: 2.57406px; white-space: pre;" transform="matrix(1.072202, 0, 0, 1.127928, -280.058655, 294.619232)" x="667.304" y="134.08">17</text>
      <text style="fill: rgb(255, 255, 255); font-family: Krungthep; font-size: 13.2399px; font-weight: 700; stroke-width: 2.57406px; white-space: pre;" transform="matrix(1.029042, 0.37454, -0.404629, 1.11171, -184.380753, 14.065829)" x="667.304" y="134.08">13</text>
      <text style="fill: rgb(255, 255, 255); font-family: Krungthep; font-size: 11.8803px; font-weight: 700; stroke-width: 2.57406px; white-space: pre;" transform="matrix(0.936765, 0, 0, 1.010074, -143.488785, 314.088898)" x="667.304" y="134.08">15</text>
      <text style="fill: rgb(255, 255, 255); font-family: Krungthep; font-size: 11.0886px; font-weight: 700; line-height: 17.7417px; stroke-width: 2.57406px; white-space: pre;" transform="matrix(1.436128, -0.639405, 0.536615, 1.205257, -643.728882, 714.940247)" x="667.304" y="134.08">18</text>
      <text style="fill: rgb(255, 255, 255); font-family: Krungthep; font-size: 12.5051px; font-weight: 700; stroke-width: 2.57406px; white-space: pre;" transform="matrix(1.343302, 0, 0, 1.279473, -538.885986, 234.021545)" x="667.304" y="134.08">21</text>
      <text style="fill: rgb(255, 255, 255); font-family: Krungthep; font-size: 13.6785px; font-weight: 700; stroke-width: 2.57406px; white-space: pre;" transform="matrix(0.834104, 0.20428, -0.207021, 0.845297, -151.170303, 116.351349)"><tspan x="667.304" y="134.08">19</tspan><tspan x="667.304" dy="1em"></tspan></text>
      <text style="fill: rgb(255, 255, 255); font-family: Krungthep; font-size: 12.2202px; font-weight: 700; line-height: 21.8185px; stroke-width: 2.57406px; white-space: pre;" transform="matrix(0.556294, -0.419197, 0.529589, 0.702789, -87.039192, 560.086121)" x="667.304" y="134.08">20</text>
      <text style="fill: rgb(255, 255, 255); font-family: Krungthep; font-size: 13.2993px; font-weight: 700; stroke-width: 2.57406px; white-space: pre;" transform="matrix(0.995783, 0.529467, -0.574405, 1.080298, -232.257339, -68.979813)" x="667.304" y="134.08">22</text>
      <text style="fill: rgb(255, 255, 255); font-family: Krungthep; font-size: 9.80782px; font-weight: 700; stroke-width: 2.57406px; white-space: pre;" transform="matrix(1.127794, 0, 0, 1.223513, -415.494385, 219.691742)" x="667.304" y="134.08">23</text>
      <text style="fill: rgb(255, 255, 255); font-family: Krungthep; font-size: 13.0771px; font-weight: 700; stroke-width: 2.57406px; white-space: pre;" transform="matrix(1.127794, 0, 0, 1.223513, -434.862713, 249.48893)" x="667.304" y="134.08">24</text>
      <text style="fill: rgb(255, 255, 255); font-family: Krungthep; font-size: 11.2876px; font-weight: 700; line-height: 18.0601px; stroke-width: 2.57406px; white-space: pre;" transform="matrix(1.043487, -0.730657, 0.701778, 1.002243, -460.635742, 794.660889)" x="667.304" y="134.08" bx:origin="0.647 0.629">25</text>
      <text style="fill: rgb(255, 255, 255); font-family: Krungthep; font-size: 10.7771px; font-weight: 700; stroke-width: 2.57406px; white-space: pre;" transform="matrix(0.877579, 0.48645, -0.555191, 1.001591, -221.085281, -61.901054)" x="667.304" y="134.08">26</text>
      <text style="fill: rgb(255, 255, 255); font-family: Krungthep; font-size: 9.80782px; font-weight: 700; stroke-width: 2.57406px; white-space: pre;" transform="matrix(1.127794, 0, 0, 1.223513, -450.79071, 287.924469)" x="667.304" y="134.08">27</text>
      <text style="fill: rgb(255, 255, 255); font-family: Krungthep; font-size: 11.2943px; font-weight: 700; stroke-width: 2.57406px; white-space: pre;" transform="matrix(0.837874, 0, 0, 0.8854, -265.504181, 309.703918)" x="667.304" y="134.08">28</text>
      <text style="fill: rgb(255, 255, 255); font-family: Krungthep; font-size: 10.2101px; font-weight: 700; stroke-width: 2.57406px; white-space: pre;" transform="matrix(1.022589, 0, 0, 1.175304, -409.586823, 310.681519)" x="667.304" y="134.08">29</text>
      <text style="fill: rgb(255, 255, 255); font-family: Krungthep; font-size: 13.0771px; font-weight: 700; stroke-width: 2.57406px; white-space: pre;" transform="matrix(1.127794, 0, 0, 1.223513, -492.519257, 243.244156)" x="667.304" y="134.08">30</text>
      <text style="fill: rgb(255, 255, 255); font-family: Krungthep; font-size: 13.0771px; font-weight: 700; stroke-width: 2.57406px; white-space: pre;" transform="matrix(1.127794, 0, 0, 1.223513, -527.588806, 238.734634)" x="667.304" y="134.08">32</text>
      <text style="fill: rgb(255, 255, 255); font-family: Krungthep; font-size: 12.2097px; font-weight: 700; line-height: 16.6279px; stroke-width: 2.57406px; white-space: pre;" transform="matrix(0.838837, -0.000001, 0, 0.982829, -309.55188, 254.86586)" x="667.304" y="134.08">31</text>
      <text style="fill: rgb(255, 255, 255); font-family: Krungthep; font-size: 11.4425px; font-weight: 700; line-height: 18.3079px; stroke-width: 2.57406px; white-space: pre;" transform="matrix(1.127794, 0, 0, 1.223513, -553.750732, 212.475967)" x="667.304" y="134.08">33</text>
      <text style="fill: rgb(255, 255, 255); font-family: Krungthep; font-size: 11.1503px; font-weight: 700; stroke-width: 2.57406px; white-space: pre;" transform="matrix(1.525774, 0, 0, 1.434938, -834.233643, 211.251587)" x="667.304" y="134.08">34</text>
      <text style="fill: rgb(255, 255, 255); font-family: Krungthep; font-size: 9.80782px; font-weight: 700; stroke-width: 2.57406px; white-space: pre;" transform="matrix(1.127794, 0, 0, 1.223513, -616.461182, 238.487137)" x="667.304" y="134.08">35</text>
      <text style="fill: rgb(255, 255, 255); font-family: Krungthep; font-size: 11.8198px; font-weight: 700; line-height: 18.9116px; stroke-width: 2.57406px; white-space: pre;" transform="matrix(1.197214, -0.55827, 0.395418, 0.847977, -670.48175, 705.190735)" x="667.304" y="134.08">36</text>
      <text style="fill: rgb(255, 255, 255); font-family: Krungthep; font-size: 13.2366px; font-weight: 700; line-height: 21.1785px; stroke-width: 2.57406px; white-space: pre;" transform="matrix(0.790985, 0.287895, -0.312888, 0.859653, -251.13533, 127.354454)" x="667.304" y="134.08">37</text>
      <text style="fill: rgb(255, 255, 255); font-family: Krungthep; font-size: 11.4425px; font-weight: 700; line-height: 18.3079px; stroke-width: 2.57406px; white-space: pre;" transform="matrix(1.127794, 0, 0, 1.223513, -515.75177, 292.737976)" x="667.304" y="134.08">39</text>
      <text style="fill: rgb(255, 255, 255); font-family: Krungthep; font-size: 11.4425px; font-weight: 700; line-height: 18.3079px; stroke-width: 2.57406px; white-space: pre;" transform="matrix(1.127794, 0, 0, 1.223513, -554.467468, 290.562164)" x="667.304" y="134.08">38</text>
    </g>
  </g>
</svg>
